<svg xmlns="http://www.w3.org/2000/svg" xmlns:xlink="http://www.w3.org/1999/xlink" version="1.1" id="Layer_1" x="0px" y="0px" viewBox="0 0 90.1 86.6" style="enable-background:new 0 0 90.1 86.6;" xml:space="preserve">
<style type="text/css">
	.st0{display:none;fill:#0095DA;}
	.st1{fill-rule:evenodd;clip-rule:evenodd;fill:#FFFFFF;}
	.st2{fill:#FFFFFF;}
</style>
<title>Asset 2</title>
<g>
	<rect y="0" class="st0" width="90.1" height="86.6"/>
	<g id="Layer_1">
		<path class="st1" d="M48.6,29.5h-7.8l9.3-13.7l5.9-2c0.8-0.2,0.5-0.8,0.2-0.8h-5.5L50,7c0-0.2-0.2-0.3-0.4-0.3    c-0.1,0-0.3,0.1-0.3,0.3l-1.8,6h-5.8c-0.5,0-0.5,0.6,0,0.8l5.3,1.9L34.6,29.5H8.4c-0.5,0-0.9,0.4-0.9,0.9c0,0.5,0.4,0.9,0.9,0.9    l22.8,2.9c-0.8,1.4-2.1,2.7-2.5,4.3c-0.4,1,0.1,2.1,1.1,2.5c0.3,0.1,0.7,0.2,1,0.1c2-0.5,5.4-4.7,6.8-6.4l0.5-0.8l9.5-0.7    L48.6,29.5z"/>
		<path class="st1" d="M77.3,29.5H52.1l0.9,3.4l24.4-1.6c0.5,0,0.9-0.4,0.9-0.9C78.2,29.9,77.8,29.5,77.3,29.5"/>
		<path class="st1" d="M64.5,0H21.8C21,12.9,11.8,21.8,0,24.8c3.3,28.1,18.5,50.5,45,61.9c22.5-9.7,39-28,43.9-50.9    C93.2,16.4,85.4-0.1,64.5,0 M85.8,35.1C81,57.3,65.5,73.9,45,83.2C21.8,72.9,7.2,52.8,3.4,27c10.9-3.7,19.3-12.2,21.1-23.8h39.9    C83.4,3.1,89.6,17.7,85.8,35.1"/>
		<path class="st2" d="M66.9,49.2c0.1-0.2,0.2-0.4,0.4-0.5c0.1,0,0.1-0.1,0.2-0.1c0.7-0.1,1.4-0.2,2.1-0.2v-1.7h-9.3v1.7h0.4    c0.5,0,1.1,0,1.6,0.1h0.1l0,0l0.2,0.1c0.1,0.1,0.2,0.1,0.2,0.2c0.3,0.6,0.5,1.3,0.4,2V59c0,1.4-0.1,1.8-0.3,2    c-0.1,0.1-0.2,0.2-0.3,0.2l-0.1,0.1l-0.1,0.1l0,0c-1.1,0.3-2.2,0.1-3.2-0.5c-0.7-0.7-1.1-1.5-1.9-4.7l-7-29.5l-7.7,30.1    c-0.3,1.3-0.7,2.5-1.3,3.7c-0.6,1.2-2.6,1.3-3.7,0.9c-0.5-0.2-0.6-0.7-0.6-2.2v-8.2c0-1.8,0-2.5,1.8-2.5v-1.7h-5.7L30,55.2    l-3.2-8.5h-5.9v1.7c1.8,0,1.8,1,1.8,2.5v8c0,1.6-0.1,2.7-2,2.7v1.6h5.5v-1.6c-1.7,0-1.9-0.8-1.9-2.3v-8.2L29,62.7l4.5-11.3v7.7    c0,1.9-0.2,2.5-2,2.5v1.6h15v-1.6c-2.3,0-2.5-0.8-1.9-3l0.8-3.3h6.5c0.4,1.6,0.7,3.3,0.9,4.9c0,1.3-0.8,1.4-2.1,1.4v1.6h18.9v-1.6    h-1.4h-0.1c-0.7-0.1-1.1-0.3-1.3-0.8c0-0.3,0-0.7,0-1v-9.7C66.8,49.8,66.8,49.5,66.9,49.2z M46,53.4L49,41l2.5,12.4L46,53.4z"/>
	</g>
</g>
</svg>